<svg width="51" height="51" fill="none" xmlns="http://www.w3.org/2000/svg"><path d="M25.401 0C11.374 0 0 11.69 0 26.112c0 11.537 7.278 21.324 17.371 24.777 1.27.242 1.736-.566 1.736-1.256 0-.623-.024-2.68-.035-4.862-7.067 1.58-8.558-3.08-8.558-3.08-1.155-3.019-2.82-3.821-2.82-3.821-2.305-1.62.174-1.587.174-1.587 2.55.184 3.893 2.69 3.893 2.69 2.266 3.992 5.943 2.838 7.392 2.171.228-1.688.887-2.84 1.613-3.491-5.642-.66-11.573-2.9-11.573-12.905 0-2.85.992-5.18 2.617-7.009-.264-.658-1.133-3.313.246-6.91 0 0 2.133-.702 6.988 2.677 2.026-.58 4.199-.87 6.357-.879 2.16.01 4.334.3 6.364.879 4.848-3.379 6.978-2.677 6.978-2.677 1.383 3.597.513 6.252.25 6.91 1.628 1.829 2.613 4.158 2.613 7.009 0 10.029-5.942 12.237-11.598 12.884.911.81 1.723 2.4 1.723 4.835 0 3.494-.03 6.306-.03 7.166 0 .695.457 1.509 1.745 1.253 10.087-3.457 17.357-13.241 17.357-24.774C50.803 11.69 39.43 0 25.4 0z" fill="#161614"/><path d="M9.514 37.197c-.056.13-.255.168-.435.08-.185-.086-.288-.263-.229-.393.055-.134.254-.17.438-.081.185.085.29.263.226.394m1.25 1.146c-.122.115-.359.061-.52-.121-.166-.182-.197-.425-.074-.543.125-.115.355-.061.521.121.167.184.199.426.072.543m.858 1.466c-.156.111-.41.007-.568-.225-.156-.232-.156-.51.003-.623.158-.111.409-.01.568.22.156.236.156.514-.004.628m1.45 1.698c-.14.158-.436.116-.653-.1-.222-.21-.284-.509-.144-.667.14-.158.44-.114.658.1.22.21.288.511.14.667m1.873.574c-.062.204-.347.297-.635.21-.287-.09-.475-.329-.417-.535.06-.206.346-.303.636-.21.287.089.476.327.416.535m2.132.243c.007.215-.237.394-.539.398-.304.006-.55-.168-.552-.38 0-.217.238-.394.541-.4.303-.005.55.168.55.382m2.095-.083c.036.21-.174.426-.474.483-.295.056-.568-.074-.605-.282-.037-.215.177-.431.471-.487.3-.054.57.073.608.286" fill="#161614"/></svg>