<svg width="51" height="51" viewBox="0 0 51 51" fill="none" xmlns="http://www.w3.org/2000/svg">
<path d="M25.4014 0C11.3744 0 0 11.6904 0 26.1116C0 37.6486 7.27826 47.4363 17.3711 50.889C18.6405 51.1307 19.1067 50.3226 19.1067 49.6329C19.1067 49.0103 19.083 46.9532 19.0722 44.7714C12.0053 46.3509 10.5142 41.6905 10.5142 41.6905C9.3587 38.6724 7.69383 37.87 7.69383 37.87C5.38927 36.2493 7.86755 36.2825 7.86755 36.2825C10.4183 36.4668 11.7615 38.9734 11.7615 38.9734C14.027 42.9653 17.7038 41.8112 19.1533 41.1442C19.3812 39.4563 20.0396 38.3046 20.766 37.6525C15.1241 36.9921 9.19295 34.7531 9.19295 24.7479C9.19295 21.8973 10.1853 19.5678 11.8103 17.7392C11.5465 17.0815 10.6771 14.4257 12.0563 10.829C12.0563 10.829 14.1894 10.1272 19.0435 13.5056C21.0696 12.9269 23.2427 12.6369 25.4014 12.6271C27.5601 12.6369 29.7348 12.9269 31.7648 13.5056C36.6132 10.1272 38.7433 10.829 38.7433 10.829C40.1258 14.4257 39.2561 17.0815 38.9923 17.7392C40.6209 19.5678 41.6064 21.8971 41.6064 24.7479C41.6064 34.7769 35.6641 36.9853 30.0079 37.6316C30.919 38.442 31.7308 40.0311 31.7308 42.4671C31.7308 45.9608 31.7013 48.7728 31.7013 49.6329C31.7013 50.3277 32.1585 51.142 33.4462 50.8856C43.5335 47.4289 50.8026 37.6447 50.8026 26.1116C50.8026 11.6904 39.4298 0 25.4014 0Z" fill="#161614"/>
<path d="M9.51384 37.1966C9.45806 37.3263 9.25924 37.3652 9.07855 37.2763C8.89427 37.1911 8.79067 37.0142 8.85044 36.8839C8.90523 36.7504 9.10405 36.7131 9.28792 36.8028C9.4726 36.8878 9.57779 37.0664 9.51384 37.1966M10.7633 38.3426C10.6422 38.4581 10.4053 38.4045 10.2446 38.222C10.0784 38.04 10.0473 37.7967 10.1703 37.6793C10.2952 37.564 10.5249 37.6179 10.6914 37.8002C10.8576 37.9843 10.8898 38.2261 10.7631 38.3428M11.6206 39.8089C11.4648 39.9201 11.2102 39.8159 11.053 39.5837C10.8974 39.3516 10.8974 39.0731 11.0564 38.9615C11.2142 38.8499 11.4648 38.9503 11.6242 39.1806C11.7796 39.4168 11.7796 39.6953 11.6204 39.8091M13.0701 41.5072C12.9308 41.6649 12.6344 41.6228 12.4173 41.4073C12.1953 41.1968 12.1334 40.898 12.273 40.7401C12.4139 40.582 12.7121 40.6265 12.9308 40.84C13.1514 41.0502 13.2187 41.3512 13.0703 41.5072M14.9435 42.0807C14.8824 42.285 14.5967 42.378 14.309 42.2912C14.0218 42.2017 13.8337 41.9621 13.8917 41.7555C13.9514 41.5496 14.2383 41.4528 14.5282 41.5457C14.8151 41.6348 15.0035 41.8726 14.9437 42.0807M17.076 42.3237C17.0832 42.5392 16.8391 42.7178 16.5371 42.7216C16.2333 42.7284 15.9877 42.5541 15.9845 42.3424C15.9845 42.1249 16.2229 41.948 16.5265 41.9428C16.8286 41.9367 17.076 42.1097 17.076 42.3237M19.1706 42.2412C19.2068 42.4513 18.9969 42.6672 18.697 42.7245C18.4022 42.7798 18.1293 42.6502 18.0916 42.4419C18.0549 42.2265 18.2689 42.0108 18.5632 41.9549C18.8636 41.9013 19.1323 42.0276 19.1706 42.2412" fill="#161614"/>
</svg>
